<svg class="animated" id="freepik_stories-alien-spaceship" xmlns="http://www.w3.org/2000/svg" viewBox="0 0 500 500" version="1.1" xmlns:xlink="http://www.w3.org/1999/xlink" xmlns:svgjs="http://svgjs.com/svgjs"><style>svg#freepik_stories-alien-spaceship:not(.animated) .animable {opacity: 0;}svg#freepik_stories-alien-spaceship.animated #freepik--Spaceship--inject-53 {animation: 1.5s Infinite  linear floating;animation-delay: 0s;}            @keyframes floating {                0% {                    opacity: 1;                    transform: translateY(0px);                }                50% {                    transform: translateY(-10px);                }                100% {                    opacity: 1;                    transform: translateY(0px);                }            }        </style><g id="freepik--background-complete--inject-53" class="animable animator-active" style="transform-origin: 250px 244.719px;"><path d="M443.92,330.2H263.17a5.87,5.87,0,0,1-5.86-5.86V61.06a5.87,5.87,0,0,1,5.86-5.86H443.92a5.87,5.87,0,0,1,5.86,5.86V324.34A5.87,5.87,0,0,1,443.92,330.2ZM263.17,55.45a5.62,5.62,0,0,0-5.61,5.61V324.34a5.62,5.62,0,0,0,5.61,5.61H443.92a5.61,5.61,0,0,0,5.61-5.61V61.06a5.61,5.61,0,0,0-5.61-5.61Z" style="fill: rgb(224, 224, 224); transform-origin: 353.545px 192.7px;" id="eljxwflfe8fe" class="animable"></path><path d="M235.49,330.2H54.75a5.87,5.87,0,0,1-5.87-5.86V61.06a5.87,5.87,0,0,1,5.87-5.86H235.49a5.86,5.86,0,0,1,5.86,5.86V324.34A5.86,5.86,0,0,1,235.49,330.2ZM54.75,55.45a5.62,5.62,0,0,0-5.62,5.61V324.34A5.62,5.62,0,0,0,54.75,330H235.49a5.61,5.61,0,0,0,5.61-5.61V61.06a5.61,5.61,0,0,0-5.61-5.61Z" style="fill: rgb(224, 224, 224); transform-origin: 145.115px 192.7px;" id="elmg2k9m2659" class="animable"></path><rect y="391.27" width="500" height="0.25" style="fill: rgb(224, 224, 224); transform-origin: 250px 391.395px;" id="el00a2f8d4dtis" class="animable"></rect><rect x="51.67" y="405.53" width="16.06" height="0.25" style="fill: rgb(224, 224, 224); transform-origin: 59.7px 405.655px;" id="elf9fi3wc04ea" class="animable"></rect><rect x="170.35" y="402.82" width="53.53" height="0.25" style="fill: rgb(224, 224, 224); transform-origin: 197.115px 402.945px;" id="elcv632k2tnc" class="animable"></rect><rect x="68.73" y="414.82" width="36.25" height="0.25" style="fill: rgb(224, 224, 224); transform-origin: 86.855px 414.945px;" id="el4e5u7zrvyno" class="animable"></rect><rect x="378.35" y="402.69" width="43.19" height="0.25" style="fill: rgb(224, 224, 224); transform-origin: 399.945px 402.815px;" id="elg6fy7sxs9l8" class="animable"></rect><rect x="430.45" y="402.69" width="6.33" height="0.25" style="fill: rgb(224, 224, 224); transform-origin: 433.615px 402.815px;" id="elzjq3bn0uhfr" class="animable"></rect><rect x="316.21" y="408.92" width="53.89" height="0.25" style="fill: rgb(224, 224, 224); transform-origin: 343.155px 409.045px;" id="elsqq654uv28l" class="animable"></rect><path d="M424.26,269a5.32,5.32,0,0,0-5.78-.34,10.3,10.3,0,0,0-13.54-4.34,11.67,11.67,0,0,0-22.77.28,4.45,4.45,0,0,1-.87,2.3c-.95,1-2.53.65-3.88.54a9.6,9.6,0,0,0-9.68,6.76l58.52-.22A4.66,4.66,0,0,0,424.26,269Z" style="fill: rgb(230, 230, 230); transform-origin: 397.062px 264.775px;" id="elupue0zd1u7g" class="animable"></path><path d="M108.84,278.37a6.39,6.39,0,0,0-6.91-.4,12.3,12.3,0,0,0-16.17-5.18,13.95,13.95,0,0,0-27.21.33,5.25,5.25,0,0,1-1,2.75c-1.13,1.16-3,.77-4.63.65a11.47,11.47,0,0,0-11.57,8.07l69.92-.26A5.59,5.59,0,0,0,108.84,278.37Z" style="fill: rgb(230, 230, 230); transform-origin: 76.3813px 273.337px;" id="elxd146dukk1i" class="animable"></path><path d="M385.28,222.94a3.94,3.94,0,0,0-4.27-.25,7.61,7.61,0,0,0-10-3.21,8.63,8.63,0,0,0-16.83.21,3.25,3.25,0,0,1-.65,1.7c-.7.72-1.87.48-2.87.4a7.08,7.08,0,0,0-7.15,5l43.26-.16A3.44,3.44,0,0,0,385.28,222.94Z" style="fill: rgb(230, 230, 230); transform-origin: 365.187px 219.828px;" id="el8y2nzp8yqm7" class="animable"></path><path d="M128.44,101.13a8.5,8.5,0,0,0-9.21-.54c-3.74-7.55-14.15-10.88-21.58-6.9A19.16,19.16,0,0,0,79.34,79.4a19.18,19.18,0,0,0-18,14.72c-.28,1.3-.46,2.73-1.39,3.68-1.51,1.54-4,1-6.18.85a15.31,15.31,0,0,0-15.43,10.77l93.27-.34C132.45,105.92,131.05,103.1,128.44,101.13Z" style="fill: rgb(230, 230, 230); transform-origin: 85.0968px 94.41px;" id="eldjkouapu24l" class="animable"></path><path d="M153.62,231.52a4.72,4.72,0,0,0-5.11-.3,9.09,9.09,0,0,0-12-3.83,10.3,10.3,0,0,0-20.1.24,4.09,4.09,0,0,1-.77,2c-.84.85-2.24.57-3.43.47a8.5,8.5,0,0,0-8.55,6l51.69-.19A4.12,4.12,0,0,0,153.62,231.52Z" style="fill: rgb(230, 230, 230); transform-origin: 129.561px 227.781px;" id="elojk2b4z4ab" class="animable"></path><path d="M89.72,210.22a4.73,4.73,0,0,0-5.11-.3,9.09,9.09,0,0,0-12-3.83,10.31,10.31,0,0,0-20.11.25,3.88,3.88,0,0,1-.77,2c-.84.86-2.23.57-3.43.48a8.48,8.48,0,0,0-8.55,6l51.69-.19A4.12,4.12,0,0,0,89.72,210.22Z" style="fill: rgb(240, 240, 240); transform-origin: 65.6541px 206.5px;" id="elc0ku8fwzcde" class="animable"></path><path d="M460.79,193.41a4.72,4.72,0,0,0-5.1-.3,9.1,9.1,0,0,0-12-3.83,10.31,10.31,0,0,0-20.11.25,3.85,3.85,0,0,1-.77,2c-.83.86-2.23.57-3.42.48a8.49,8.49,0,0,0-8.56,6l51.69-.19A4.11,4.11,0,0,0,460.79,193.41Z" style="fill: rgb(240, 240, 240); transform-origin: 436.734px 189.69px;" id="eld65g7kunnxq" class="animable"></path><path d="M250.44,56.26a7.06,7.06,0,0,0-7.64-.44c-3.09-6.26-11.72-9-17.88-5.73a15.41,15.41,0,0,0-30.07.37,5.94,5.94,0,0,1-1.15,3c-1.26,1.28-3.35.85-5.13.71a12.69,12.69,0,0,0-12.79,8.92l77.31-.28C253.76,60.23,252.6,57.89,250.44,56.26Z" style="fill: rgb(240, 240, 240); transform-origin: 214.53px 50.6643px;" id="el1603lhu17uf" class="animable"></path><path d="M405.06,88.73a5.84,5.84,0,0,0-6.32-.37A11.23,11.23,0,0,0,384,83.63a12.74,12.74,0,0,0-24.86.3,4.87,4.87,0,0,1-.95,2.52c-1,1-2.76.7-4.24.58a10.5,10.5,0,0,0-10.57,7.38l63.89-.24A5.09,5.09,0,0,0,405.06,88.73Z" style="fill: rgb(230, 230, 230); transform-origin: 375.391px 84.1196px;" id="elkbnwncarefm" class="animable"></path><path d="M39.22,451.2s25.59-40.55,23.88-42.78,37.11-55.17,44.35-57.35c3.06-.93,8.84-10.92,14.49-22.15,7.68-15.28,15.1-32.81,15.1-32.81a31.94,31.94,0,0,1,9.66-.05c5.71.75,8.89-9.54,8.89-9.54l19.89-5.19,7.47,5.19,11.29,7.12s10.66,2.2,14,2.42,35.63-51.43,35.63-51.43,6.47-4.59,9.93-4.62,9.15-4.74,9.15-4.74l11.74-3s14.13,21.17,20.48,29.32,16.75,12.77,20.23,19.72,20.38,2.17,27,11.13S440.6,400.11,440.6,400.11C451.44,411.83,468,451.2,468,451.2Z" style="fill: rgb(240, 240, 240); transform-origin: 253.61px 341.735px;" id="el7tj322lmvzj" class="animable"></path><path d="M315.38,305c-4.63,6,2.29,28.32,3.31,31.51L306.44,301l8.94-12.82L278.61,247.1V252s-8.27-12-11.33-12-8.54,16.81-8.54,16.81l-6-12.19s-21.47,19.71-20.09,25.76-16.17,24.37-15,25.72S183,336.88,183,336.88l11.29-33s-3.19-4.3-7.4-5.31-11.18-4.35-16.58-3.82,0,0-1.74,3.82-3.65,3.16-12.93,8.56-2.3-3.79-2.3-3.79l-10-1.09-21.38,26.66c7.68-15.28,15.1-32.81,15.1-32.81a31.94,31.94,0,0,1,9.66-.05c5.71.75,8.89-9.54,8.89-9.54l19.89-5.19,7.47,5.19,11.29,7.12s10.66,2.2,14,2.42,35.63-51.43,35.63-51.43,6.47-4.59,9.93-4.62,9.15-4.74,9.15-4.74l11.74-3s14.13,21.17,20.48,29.32,16.75,12.77,20.23,19.72,20.38,2.17,27,11.13H327.87A90.18,90.18,0,0,0,315.38,305Z" style="fill: rgb(230, 230, 230); transform-origin: 232.19px 284.57px;" id="elxu5xw7vqmob" class="animable"></path></g><g id="freepik--Shadow--inject-53" class="animable" style="transform-origin: 250px 454.335px;"><path d="M458.88,454.34c0,3.38-93.52,6.13-208.88,6.13s-208.88-2.75-208.88-6.13S134.64,448.2,250,448.2,458.88,451,458.88,454.34Z" style="fill: rgb(245, 245, 245); transform-origin: 250px 454.335px;" id="elxch2eebsaz" class="animable"></path></g><g id="freepik--Trees--inject-53" class="animable" style="transform-origin: 253.077px 385.249px;"><path d="M73.92,351.89a5.84,5.84,0,0,0-8.25.16l-.11.12c-6.09,6.67-16.51,19.31-12.89,24,1.34,1.75,8.47-2.41,8.47-2.41s1.28,3.9,2.49,4.16c2.2.49,7.45-5,7.45-5s4.36,5.34,6.37,5c1.52-.22,3.5-5,3.5-5s6.45,4.25,7.69,2.64C92.31,370.69,80.61,358.31,73.92,351.89Z" style="fill: #27B9F2; transform-origin: 70.6307px 364.107px;" id="elox4zphk3tro" class="animable"></path><g id="elk9tj3mc6yy9"><path d="M73.92,351.89a5.84,5.84,0,0,0-8.25.16l-.11.12c-6.09,6.67-16.51,19.31-12.89,24,1.34,1.75,8.47-2.41,8.47-2.41s1.28,3.9,2.49,4.16c2.2.49,7.45-5,7.45-5s4.36,5.34,6.37,5c1.52-.22,3.5-5,3.5-5s6.45,4.25,7.69,2.64C92.31,370.69,80.61,358.31,73.92,351.89Z" style="opacity: 0.3; transform-origin: 70.6307px 364.107px;" class="animable" id="eleuhwxejfbcf"></path></g><polygon points="68.78 377.95 66.16 457.56 73.06 457.56 70.43 377.95 68.78 377.95" style="fill: rgb(38, 50, 56); transform-origin: 69.61px 417.755px;" id="elnulppjwibto" class="animable"></polygon><path d="M68.87,395.37S31,432.87,39.65,444.16c2.32,3,14.61-4.17,14.61-4.17s2.26,6.74,4.3,7.19c3.79.84,12.86-8.7,12.86-8.7s7.51,9.21,11,8.7c2.62-.38,6-8.7,6-8.7s11.12,7.32,13.24,4.54C110.42,431.47,68.87,395.37,68.87,395.37Z" style="fill: #27B9F2; transform-origin: 70.6194px 421.301px;" id="elr3dl4qe746" class="animable"></path><g id="ela5ansfbfbq5"><path d="M68.87,395.37S31,432.87,39.65,444.16c2.32,3,14.61-4.17,14.61-4.17s2.26,6.74,4.3,7.19c3.79.84,12.86-8.7,12.86-8.7s7.51,9.21,11,8.7c2.62-.38,6-8.7,6-8.7s11.12,7.32,13.24,4.54C110.42,431.47,68.87,395.37,68.87,395.37Z" style="opacity: 0.3; transform-origin: 70.6194px 421.301px;" class="animable" id="elqcip3knx0fc"></path></g><path d="M69.37,360.79s-26.8,26.55-20.67,34.53c1.63,2.13,10.34-2.95,10.34-2.95s1.6,4.77,3,5.09c2.69.6,9.1-6.16,9.1-6.16s5.31,6.52,7.77,6.16c1.85-.27,4.28-6.16,4.28-6.16s7.87,5.19,9.37,3.21C98.79,386.36,69.37,360.79,69.37,360.79Z" style="fill: #27B9F2; transform-origin: 70.6074px 379.144px;" id="elqoqozg8c7k" class="animable"></path><g id="eldma86fnjvw5"><path d="M69.37,360.79s-26.8,26.55-20.67,34.53c1.63,2.13,10.34-2.95,10.34-2.95s1.6,4.77,3,5.09c2.69.6,9.1-6.16,9.1-6.16s5.31,6.52,7.77,6.16c1.85-.27,4.28-6.16,4.28-6.16s7.87,5.19,9.37,3.21C98.79,386.36,69.37,360.79,69.37,360.79Z" style="opacity: 0.3; transform-origin: 70.6074px 379.144px;" class="animable" id="elxzp5xyl0t3a"></path></g><path d="M69.1,375.24s-32.88,32.57-25.36,42.37c2,2.61,12.69-3.62,12.69-3.62s2,5.85,3.73,6.24c3.29.73,11.17-7.55,11.17-7.55s6.51,8,9.52,7.55c2.28-.33,5.25-7.55,5.25-7.55s9.67,6.36,11.5,3.94C105.18,406.61,69.1,375.24,69.1,375.24Z" style="fill: #27B9F2; transform-origin: 70.6343px 397.758px;" id="elthapje1y25" class="animable"></path><g id="eldajqw8is44"><path d="M69.1,375.24s-32.88,32.57-25.36,42.37c2,2.61,12.69-3.62,12.69-3.62s2,5.85,3.73,6.24c3.29.73,11.17-7.55,11.17-7.55s6.51,8,9.52,7.55c2.28-.33,5.25-7.55,5.25-7.55s9.67,6.36,11.5,3.94C105.18,406.61,69.1,375.24,69.1,375.24Z" style="opacity: 0.3; transform-origin: 70.6343px 397.758px;" class="animable" id="el3xbynhwyuy9"></path></g><path d="M169.09,351.89a5.84,5.84,0,0,0-8.25.16l-.11.12c-6.09,6.67-16.51,19.31-12.89,24,1.34,1.75,8.47-2.41,8.47-2.41s1.28,3.9,2.49,4.16c2.2.49,7.45-5,7.45-5s4.36,5.34,6.37,5c1.52-.22,3.5-5,3.5-5s6.46,4.25,7.69,2.64C187.48,370.69,175.78,358.31,169.09,351.89Z" style="fill: #27B9F2; transform-origin: 165.801px 364.107px;" id="el1tiqvjywjgr" class="animable"></path><g id="elsv48151cixf"><path d="M169.09,351.89a5.84,5.84,0,0,0-8.25.16l-.11.12c-6.09,6.67-16.51,19.31-12.89,24,1.34,1.75,8.47-2.41,8.47-2.41s1.28,3.9,2.49,4.16c2.2.49,7.45-5,7.45-5s4.36,5.34,6.37,5c1.52-.22,3.5-5,3.5-5s6.46,4.25,7.69,2.64C187.48,370.69,175.78,358.31,169.09,351.89Z" style="opacity: 0.3; transform-origin: 165.801px 364.107px;" class="animable" id="elxyc7ck4obhf"></path></g><polygon points="163.95 377.95 161.33 457.56 168.23 457.56 165.6 377.95 163.95 377.95" style="fill: rgb(38, 50, 56); transform-origin: 164.78px 417.755px;" id="elk1gcmr0av8" class="animable"></polygon><path d="M164,395.37s-37.87,37.5-29.22,48.79c2.32,3,14.61-4.17,14.61-4.17s2.26,6.74,4.3,7.19c3.79.84,12.86-8.7,12.86-8.7s7.51,9.21,11,8.7c2.62-.38,6.05-8.7,6.05-8.7s11.12,7.32,13.24,4.54C205.59,431.47,164,395.37,164,395.37Z" style="fill: #27B9F2; transform-origin: 165.773px 421.301px;" id="elqi2g6rte2wm" class="animable"></path><g id="el1cnxkx5sf9a"><path d="M164,395.37s-37.87,37.5-29.22,48.79c2.32,3,14.61-4.17,14.61-4.17s2.26,6.74,4.3,7.19c3.79.84,12.86-8.7,12.86-8.7s7.51,9.21,11,8.7c2.62-.38,6.05-8.7,6.05-8.7s11.12,7.32,13.24,4.54C205.59,431.47,164,395.37,164,395.37Z" style="opacity: 0.3; transform-origin: 165.773px 421.301px;" class="animable" id="elbo8p82kpbwn"></path></g><path d="M164.54,360.79s-26.79,26.55-20.67,34.53c1.64,2.13,10.34-2.95,10.34-2.95s1.6,4.77,3,5.09c2.69.6,9.1-6.16,9.1-6.16s5.31,6.52,7.77,6.16c1.85-.27,4.28-6.16,4.28-6.16s7.87,5.19,9.37,3.21C194,386.36,164.54,360.79,164.54,360.79Z" style="fill: #27B9F2; transform-origin: 165.783px 379.144px;" id="el06m9eyd1zk33" class="animable"></path><g id="elkl6jq6txg1"><path d="M164.54,360.79s-26.79,26.55-20.67,34.53c1.64,2.13,10.34-2.95,10.34-2.95s1.6,4.77,3,5.09c2.69.6,9.1-6.16,9.1-6.16s5.31,6.52,7.77,6.16c1.85-.27,4.28-6.16,4.28-6.16s7.87,5.19,9.37,3.21C194,386.36,164.54,360.79,164.54,360.79Z" style="opacity: 0.3; transform-origin: 165.783px 379.144px;" class="animable" id="elv2yvj0amwpb"></path></g><path d="M164.27,375.24s-32.88,32.57-25.36,42.37c2,2.61,12.69-3.62,12.69-3.62s2,5.85,3.74,6.24c3.28.73,11.16-7.55,11.16-7.55s6.52,8,9.52,7.55c2.28-.33,5.25-7.55,5.25-7.55s9.67,6.36,11.5,3.94C200.35,406.61,164.27,375.24,164.27,375.24Z" style="fill: #27B9F2; transform-origin: 165.804px 397.758px;" id="el0puzbgt63tqi" class="animable"></path><g id="el9823chbchyj"><path d="M164.27,375.24s-32.88,32.57-25.36,42.37c2,2.61,12.69-3.62,12.69-3.62s2,5.85,3.74,6.24c3.28.73,11.16-7.55,11.16-7.55s6.52,8,9.52,7.55c2.28-.33,5.25-7.55,5.25-7.55s9.67,6.36,11.5,3.94C200.35,406.61,164.27,375.24,164.27,375.24Z" style="opacity: 0.3; transform-origin: 165.804px 397.758px;" class="animable" id="elqxd9e3xouzo"></path></g><polygon points="121.36 350.26 117.82 457.56 127.12 457.56 123.58 350.26 121.36 350.26" style="fill: rgb(38, 50, 56); transform-origin: 122.47px 403.91px;" id="el0lopclkbly0m" class="animable"></polygon><path d="M121.47,373.73s-51,50.55-39.37,65.76c3.11,4.06,19.69-5.61,19.69-5.61s3,9.08,5.79,9.69c5.11,1.13,17.34-11.73,17.34-11.73S135,444.25,139.7,443.57c3.53-.52,8.15-11.73,8.15-11.73s15,9.87,17.85,6.13C177.48,422.4,121.47,373.73,121.47,373.73Z" style="fill: #27B9F2; transform-origin: 123.852px 408.685px;" id="eltuudfyhvyr" class="animable"></path><path d="M121.78,346.6s-44.31,43.9-34.17,57.11c2.7,3.52,17.1-4.87,17.1-4.87s2.64,7.88,5,8.41c4.44,1,15.05-10.18,15.05-10.18s8.78,10.78,12.84,10.18c3.07-.46,7.08-10.18,7.08-10.18s13,8.57,15.49,5.31C170.42,388.89,121.78,346.6,121.78,346.6Z" style="fill: #27B9F2; transform-origin: 123.845px 376.957px;" id="el97pusn7hu1q" class="animable"></path><path d="M122.16,327.13S86,362.91,94.29,373.67c2.2,2.87,13.93-4,13.93-4s2.16,6.42,4.11,6.85c3.62.81,12.26-8.3,12.26-8.3s7.16,8.79,10.47,8.3c2.5-.37,5.77-8.3,5.77-8.3s10.61,7,12.63,4.32C161.8,361.59,122.16,327.13,122.16,327.13Z" style="fill: #27B9F2; transform-origin: 123.834px 351.851px;" id="el3d83weg4sum" class="animable"></path><path d="M128.29,315.14a7.87,7.87,0,0,0-11.13.21,1.07,1.07,0,0,0-.14.16c-8.21,9-22.26,26-17.38,32.39,1.8,2.35,11.42-3.25,11.42-3.25s1.72,5.26,3.36,5.61c3,.66,10-6.79,10-6.79s5.88,7.19,8.58,6.79c2.05-.3,4.72-6.79,4.72-6.79s8.7,5.72,10.37,3.55C153.08,340.47,137.3,323.78,128.29,315.14Z" style="fill: #27B9F2; transform-origin: 123.84px 331.62px;" id="elvd1rvcivtch" class="animable"></path><path d="M403.47,351.89a5.84,5.84,0,0,0-8.25.16l-.11.12c-6.09,6.67-16.51,19.31-12.89,24,1.34,1.75,8.47-2.41,8.47-2.41s1.28,3.9,2.49,4.16c2.2.49,7.46-5,7.46-5s4.35,5.34,6.36,5c1.52-.22,3.5-5,3.5-5s6.46,4.25,7.69,2.64C421.86,370.69,410.16,358.31,403.47,351.89Z" style="fill: #27B9F2; transform-origin: 400.181px 364.107px;" id="el8ukp9g5flfe" class="animable"></path><g id="el5v6a8idd923"><path d="M403.47,351.89a5.84,5.84,0,0,0-8.25.16l-.11.12c-6.09,6.67-16.51,19.31-12.89,24,1.34,1.75,8.47-2.41,8.47-2.41s1.28,3.9,2.49,4.16c2.2.49,7.46-5,7.46-5s4.35,5.34,6.36,5c1.52-.22,3.5-5,3.5-5s6.46,4.25,7.69,2.64C421.86,370.69,410.16,358.31,403.47,351.89Z" style="opacity: 0.3; transform-origin: 400.181px 364.107px;" class="animable" id="elxi9s5fxnx4k"></path></g><polygon points="398.33 377.95 395.71 457.56 402.61 457.56 399.98 377.95 398.33 377.95" style="fill: rgb(38, 50, 56); transform-origin: 399.16px 417.755px;" id="elztch99kl8uo" class="animable"></polygon><path d="M398.42,395.37s-37.87,37.5-29.22,48.79c2.32,3,14.61-4.17,14.61-4.17s2.26,6.74,4.3,7.19c3.79.84,12.86-8.7,12.86-8.7s7.51,9.21,11,8.7c2.62-.38,6.05-8.7,6.05-8.7s11.12,7.32,13.24,4.54C440,431.47,398.42,395.37,398.42,395.37Z" style="fill: #27B9F2; transform-origin: 400.191px 421.301px;" id="el7s0lvtj3zzb" class="animable"></path><g id="elomq58eajdyg"><path d="M398.42,395.37s-37.87,37.5-29.22,48.79c2.32,3,14.61-4.17,14.61-4.17s2.26,6.74,4.3,7.19c3.79.84,12.86-8.7,12.86-8.7s7.51,9.21,11,8.7c2.62-.38,6.05-8.7,6.05-8.7s11.12,7.32,13.24,4.54C440,431.47,398.42,395.37,398.42,395.37Z" style="opacity: 0.3; transform-origin: 400.191px 421.301px;" class="animable" id="elffhyu3ku58p"></path></g><path d="M398.92,360.79s-26.79,26.55-20.67,34.53c1.64,2.13,10.34-2.95,10.34-2.95s1.6,4.77,3,5.09c2.69.6,9.1-6.16,9.1-6.16s5.31,6.52,7.77,6.16c1.85-.27,4.28-6.16,4.28-6.16s7.87,5.19,9.37,3.21C428.34,386.36,398.92,360.79,398.92,360.79Z" style="fill: #27B9F2; transform-origin: 400.159px 379.144px;" id="elfjcht094rbm" class="animable"></path><g id="ell1hlwr1jy9d"><path d="M398.92,360.79s-26.79,26.55-20.67,34.53c1.64,2.13,10.34-2.95,10.34-2.95s1.6,4.77,3,5.09c2.69.6,9.1-6.16,9.1-6.16s5.31,6.52,7.77,6.16c1.85-.27,4.28-6.16,4.28-6.16s7.87,5.19,9.37,3.21C428.34,386.36,398.92,360.79,398.92,360.79Z" style="opacity: 0.3; transform-origin: 400.159px 379.144px;" class="animable" id="el31zzi919j3j"></path></g><path d="M398.65,375.24s-32.88,32.57-25.36,42.37C375.3,420.22,386,414,386,414s2,5.85,3.74,6.24c3.28.73,11.16-7.55,11.16-7.55s6.52,8,9.52,7.55c2.28-.33,5.26-7.55,5.26-7.55s9.66,6.36,11.49,3.94C434.73,406.61,398.65,375.24,398.65,375.24Z" style="fill: #27B9F2; transform-origin: 400.192px 397.763px;" id="elqmynlj858hl" class="animable"></path><g id="elkfsqhcuzas"><path d="M398.65,375.24s-32.88,32.57-25.36,42.37C375.3,420.22,386,414,386,414s2,5.85,3.74,6.24c3.28.73,11.16-7.55,11.16-7.55s6.52,8,9.52,7.55c2.28-.33,5.26-7.55,5.26-7.55s9.66,6.36,11.49,3.94C434.73,406.61,398.65,375.24,398.65,375.24Z" style="opacity: 0.3; transform-origin: 400.192px 397.763px;" class="animable" id="elz5y3z11wp5e"></path></g><polygon points="430.42 370.29 427.54 457.56 435.1 457.56 432.22 370.29 430.42 370.29" style="fill: rgb(38, 50, 56); transform-origin: 431.32px 413.925px;" id="elvlndw7ajf5g" class="animable"></polygon><path d="M430.51,389.38s-41.51,41.12-32,53.49c2.54,3.3,16-4.57,16-4.57s2.47,7.38,4.71,7.88c4.15.92,14.1-9.54,14.1-9.54s8.23,10.1,12,9.54c2.87-.42,6.63-9.54,6.63-9.54s12.2,8,14.51,5C476.06,429,430.51,389.38,430.51,389.38Z" style="fill: #27B9F2; transform-origin: 432.442px 417.809px;" id="eloi9pevluopp" class="animable"></path><path d="M430.76,367.31S394.71,403,403,413.76c2.2,2.87,13.91-4,13.91-4s2.15,6.41,4.1,6.84c3.6.8,12.23-8.28,12.23-8.28s7.15,8.77,10.44,8.28c2.5-.37,5.76-8.28,5.76-8.28s10.6,7,12.61,4.32C470.32,401.71,430.76,367.31,430.76,367.31Z" style="fill: #27B9F2; transform-origin: 432.474px 391.98px;" id="el2tdl99o2syh" class="animable"></path><path d="M431.06,351.48s-29.38,29.1-22.66,37.85c1.79,2.33,11.33-3.23,11.33-3.23s1.76,5.22,3.34,5.58c2.94.65,10-6.76,10-6.76s5.83,7.15,8.52,6.76c2-.31,4.69-6.76,4.69-6.76s8.63,5.69,10.27,3.52C463.31,379.51,431.06,351.48,431.06,351.48Z" style="fill: #27B9F2; transform-origin: 432.441px 371.6px;" id="elc87l1x6xi1r" class="animable"></path><path d="M436.05,341.72a6.4,6.4,0,0,0-9.05.18l-.12.12c-6.67,7.32-18.1,21.18-14.13,26.35,1.47,1.91,9.28-2.64,9.28-2.64s1.41,4.27,2.74,4.56c2.41.54,8.17-5.53,8.17-5.53s4.77,5.85,7,5.53c1.67-.24,3.85-5.53,3.85-5.53s7.07,4.66,8.43,2.89C456.21,362.33,443.38,348.75,436.05,341.72Z" style="fill: #27B9F2; transform-origin: 432.452px 355.129px;" id="el6ivjt67374" class="animable"></path><polygon points="354.21 350.26 350.67 457.56 359.97 457.56 356.43 350.26 354.21 350.26" style="fill: rgb(38, 50, 56); transform-origin: 355.32px 403.91px;" id="eldjvlkb4p0t" class="animable"></polygon><path d="M354.33,373.73s-51,50.55-39.38,65.76c3.12,4.06,19.69-5.61,19.69-5.61s3,9.08,5.8,9.69c5.1,1.13,17.33-11.73,17.33-11.73s10.12,12.41,14.78,11.73c3.53-.52,8.15-11.73,8.15-11.73s15,9.87,17.85,6.13C410.33,422.4,354.33,373.73,354.33,373.73Z" style="fill: #27B9F2; transform-origin: 356.703px 408.685px;" id="eliogj405u8l7" class="animable"></path><path d="M354.64,346.6s-44.32,43.9-34.18,57.11c2.7,3.52,17.1-4.87,17.1-4.87s2.64,7.88,5,8.41c4.43,1,15-10.18,15-10.18s8.79,10.78,12.84,10.18c3.07-.46,7.08-10.18,7.08-10.18s13,8.57,15.5,5.31C403.27,388.89,354.64,346.6,354.64,346.6Z" style="fill: #27B9F2; transform-origin: 356.681px 376.957px;" id="el2rtchun0rex" class="animable"></path><path d="M355,327.13s-36.12,35.78-27.87,46.54c2.21,2.87,13.94-4,13.94-4s2.16,6.42,4.1,6.85c3.62.81,12.26-8.3,12.26-8.3s7.16,8.79,10.47,8.3c2.5-.37,5.77-8.3,5.77-8.3s10.61,7,12.63,4.32C394.65,361.59,355,327.13,355,327.13Z" style="fill: #27B9F2; transform-origin: 356.68px 351.851px;" id="elkly2q8qubu" class="animable"></path><path d="M361.14,315.14a7.87,7.87,0,0,0-11.13.21l-.14.16c-8.21,9-22.26,26-17.38,32.39,1.81,2.35,11.42-3.25,11.42-3.25s1.73,5.26,3.36,5.61c3,.66,10-6.79,10-6.79s5.88,7.19,8.58,6.79c2.05-.3,4.73-6.79,4.73-6.79s8.69,5.72,10.36,3.55C385.93,340.47,370.15,323.78,361.14,315.14Z" style="fill: #27B9F2; transform-origin: 356.689px 331.62px;" id="eligzvuh57rla" class="animable"></path><path d="M379.8,331.38a.25.25,0,0,1-.2-.09c-.77-1-1.52-1.92-2.28-2.88-2.33-3-4.74-6-7.44-9.05a.24.24,0,0,1,0-.35.25.25,0,0,1,.35,0c2.7,3.06,5.12,6.12,7.45,9.07L380,331a.24.24,0,0,1,0,.35A.27.27,0,0,1,379.8,331.38Z" style="fill: #27B9F2; transform-origin: 374.94px 325.163px;" id="elh34x1l8kuun" class="animable"></path><path d="M369.1,318.52a.21.21,0,0,1-.18-.08l-.63-.67a.25.25,0,0,1,0-.35.25.25,0,0,1,.36,0l.62.67a.24.24,0,0,1,0,.35A.23.23,0,0,1,369.1,318.52Z" style="fill: #27B9F2; transform-origin: 368.782px 317.932px;" id="elxwfhch164vh" class="animable"></path></g><g id="freepik--Spaceship--inject-53" class="animable" style="transform-origin: 248.025px 268.175px;"><g id="el0auoyzlu2s49"><polyline points="185.87 201.22 129.61 451.6 371.59 451.6 312.4 201.22" style="fill: #27B9F2; opacity: 0.3; transform-origin: 250.6px 326.41px;" class="animable" id="eldrwekyz6hx"></polyline></g><path d="M162.7,352.5h0a.25.25,0,0,1-.19-.3l22.88-100.85a.25.25,0,0,1,.49.11L163,352.31A.25.25,0,0,1,162.7,352.5Z" style="fill: #27B9F2; transform-origin: 174.195px 301.83px;" id="el5waa9wfa8es" class="animable"></path><path d="M185.94,250.25h-.06a.25.25,0,0,1-.18-.3l.44-1.75a.25.25,0,0,1,.3-.18.24.24,0,0,1,.18.3l-.43,1.75A.26.26,0,0,1,185.94,250.25Z" style="fill: #27B9F2; transform-origin: 186.161px 249.132px;" id="el9ygov0oemab" class="animable"></path><path d="M247.54,366.05h0a.25.25,0,0,1-.23-.27l6.23-64.92a.24.24,0,0,1,.27-.23.25.25,0,0,1,.22.27l-6.22,64.93A.24.24,0,0,1,247.54,366.05Z" style="fill: #27B9F2; transform-origin: 250.67px 333.34px;" id="eljg0o7sgqs0o" class="animable"></path><path d="M257.87,332.4h0a.24.24,0,0,1-.22-.27l5.3-58a.23.23,0,0,1,.27-.22.25.25,0,0,1,.23.27l-5.3,58A.27.27,0,0,1,257.87,332.4Z" style="fill: #27B9F2; transform-origin: 260.549px 303.153px;" id="elgfs3yt5krm" class="animable"></path><path d="M248,86c-45.66,0-82.68,33.54-82.68,74.91H330.72C330.72,119.55,293.7,86,248,86Z" style="fill: #27B9F2; transform-origin: 248.02px 123.455px;" id="ellbeg0inczyt" class="animable"></path><g id="eldprlusjyb0m"><path d="M248,86c-45.66,0-82.68,33.54-82.68,74.91H330.72C330.72,119.55,293.7,86,248,86Z" style="fill: rgb(255, 255, 255); opacity: 0.3; transform-origin: 248.02px 123.455px;" class="animable" id="eldmz32fq0nb"></path></g><g id="elmjriuhal6tp"><path d="M248,86l-33.51,29.84,27.26-1.76,22.34-26.66S253.29,85.86,248,86Z" style="fill: rgb(255, 255, 255); opacity: 0.3; transform-origin: 239.29px 100.916px;" class="animable" id="el66zjzdd0w2i"></path></g><ellipse cx="248.04" cy="156.76" rx="177.42" ry="42.68" style="fill: #27B9F2; transform-origin: 248.04px 156.76px;" id="el90p4is4yqpe" class="animable"></ellipse><g id="elv8bppgfcr7"><ellipse cx="248.04" cy="156.76" rx="177.42" ry="42.68" style="opacity: 0.3; transform-origin: 248.04px 156.76px;" class="animable" id="elfo32rmrhd2j"></ellipse></g><ellipse cx="248.14" cy="175.13" rx="104.34" ry="18.37" style="fill: #27B9F2; transform-origin: 248.14px 175.13px;" id="elbhuni0r3p2g" class="animable"></ellipse><polygon points="144.13 176.62 159.6 199.44 337.44 199.44 352.49 176.4 246.2 165.22 144.13 176.62" style="fill: #27B9F2; transform-origin: 248.31px 182.33px;" id="elhfepw4ai9vq" class="animable"></polygon><ellipse cx="248.04" cy="196.82" rx="89.75" ry="18.37" style="fill: #27B9F2; transform-origin: 248.04px 196.82px;" id="ela6nmffcwx7" class="animable"></ellipse><g id="el00tb8arsx6ev"><ellipse cx="248.04" cy="196.82" rx="89.75" ry="18.37" style="opacity: 0.3; transform-origin: 248.04px 196.82px;" class="animable" id="elfvn0tlaobum"></ellipse></g><g id="ele5xl0o0fv6i"><ellipse cx="248.04" cy="198.38" rx="71.22" ry="14.58" style="opacity: 0.3; transform-origin: 248.04px 198.38px;" class="animable" id="elvkqxm6r5vl"></ellipse></g><path d="M180.91,193.5l5.63,9.73,125.64-1.39,3-8.34C301.6,184.22,216.13,176,180.91,193.5Z" style="fill: #27B9F2; transform-origin: 248.045px 193.231px;" id="elgdw1gz5gjyj" class="animable"></path><ellipse cx="249.13" cy="201.22" rx="63.27" ry="11.53" style="fill: #27B9F2; transform-origin: 249.13px 201.22px;" id="el07zmhq5amxse" class="animable"></ellipse><g id="el09py3m8nzno"><ellipse cx="249.13" cy="201.22" rx="63.27" ry="11.53" style="fill: rgb(255, 255, 255); opacity: 0.3; transform-origin: 249.13px 201.22px;" class="animable" id="elwpgg0lfswm"></ellipse></g><g id="el60x03u9tt9k"><g style="opacity: 0.3; transform-origin: 248.005px 139.855px;" class="animable" id="el5j514i8epoo"><path d="M248,114.09c-98,0-177.41,19.11-177.41,42.67,0,3,1.32,6,3.83,8.86,8.26-18,31.58-25.86,51.64-30.79,75.9-18.63,157.68-18.61,234.38-3.6,23.33,4.57,47.84,11.62,64.75,27.73a10.88,10.88,0,0,0,.23-2.2C425.46,133.2,346,114.09,248,114.09Z" style="fill: rgb(255, 255, 255); transform-origin: 248.005px 139.855px;" id="elbctsahp4c0r" class="animable"></path></g></g><g id="elx70ehyr4vh8"><polygon points="143.8 175.13 80.36 156.76 144.13 173.66 143.8 175.13" style="opacity: 0.3; transform-origin: 112.245px 165.945px;" class="animable" id="elr6zkmjjn9l7"></polygon></g><g id="eljfz0uotds2f"><polygon points="175.21 125.44 187.66 160.17 190.5 159.82 175.21 125.44" style="opacity: 0.3; transform-origin: 182.855px 142.805px;" class="animable" id="elau7bpdy4ym"></polygon></g><g id="el0gsmpt1kxe6n"><polygon points="297.18 158.92 303.06 122.58 300.19 159.14 297.18 158.92" style="opacity: 0.3; transform-origin: 300.12px 140.86px;" class="animable" id="elziuat2ep4um"></polygon></g><g id="elbh6mxkhv1t"><path d="M352.49,176.4,414,150.17l-62.84,22S354.32,173.59,352.49,176.4Z" style="opacity: 0.3; transform-origin: 382.58px 163.285px;" class="animable" id="elax0oomm2mkt"></path></g><g id="el5ja3l3avbor"><polygon points="248.04 114.09 267.98 88.21 273.22 89.55 253.77 114.22 248.04 114.09" style="fill: rgb(255, 255, 255); opacity: 0.3; transform-origin: 260.63px 101.215px;" class="animable" id="el041gg0ty9tb6"></polygon></g><ellipse cx="149.37" cy="156.76" rx="5.11" ry="1.42" style="fill: rgb(255, 255, 255); transform-origin: 149.37px 156.76px;" id="eltcdl2eksh5" class="animable"></ellipse><path d="M250.32,148.75c0,.78-2.29,1.42-5.11,1.42s-5.11-.64-5.11-1.42,2.29-1.41,5.11-1.41S250.32,148,250.32,148.75Z" style="fill: rgb(255, 255, 255); transform-origin: 245.21px 148.755px;" id="el5yv6ndaxw64" class="animable"></path><path d="M365.18,186.11c0,.78-2.29,1.42-5.11,1.42s-5.11-.64-5.11-1.42,2.29-1.42,5.11-1.42S365.18,185.33,365.18,186.11Z" style="fill: rgb(255, 255, 255); transform-origin: 360.07px 186.11px;" id="el5v5r0ua8tt" class="animable"></path><path d="M342.77,157.93c-.18.76-2.56.86-5.3.21s-4.84-1.78-4.66-2.54,2.55-.86,5.3-.21S342.94,157.17,342.77,157.93Z" style="fill: rgb(255, 255, 255); transform-origin: 337.789px 156.765px;" id="elsv5kq1popo" class="animable"></path><path d="M143.82,184.65c0,.79-2.29,1.42-5.11,1.42s-5.12-.63-5.12-1.42,2.29-1.41,5.12-1.41S143.82,183.87,143.82,184.65Z" style="fill: rgb(255, 255, 255); transform-origin: 138.705px 184.655px;" id="elm1d3rykcl7i" class="animable"></path><path d="M181.81,108.23l-.36-.35c11.36-11.68,21.73-18.61,32.61-21.81l.14.48C203.4,89.72,193.11,96.61,181.81,108.23Z" style="fill: #27B9F2; transform-origin: 197.825px 97.15px;" id="elyume8vjh7da" class="animable"></path><g id="elj5mwu73bbp"><rect x="217.31" y="84.94" width="1.6" height="0.5" style="fill: #27B9F2; transform-origin: 218.11px 85.19px; transform: rotate(-14.25deg);" class="animable" id="elz1hdhhlhf4"></rect></g></g><defs>     <filter id="active" height="200%">         <feMorphology in="SourceAlpha" result="DILATED" operator="dilate" radius="2"></feMorphology>                <feFlood flood-color="#32DFEC" flood-opacity="1" result="PINK"></feFlood>        <feComposite in="PINK" in2="DILATED" operator="in" result="OUTLINE"></feComposite>        <feMerge>            <feMergeNode in="OUTLINE"></feMergeNode>            <feMergeNode in="SourceGraphic"></feMergeNode>        </feMerge>    </filter>    <filter id="hover" height="200%">        <feMorphology in="SourceAlpha" result="DILATED" operator="dilate" radius="2"></feMorphology>                <feFlood flood-color="#ff0000" flood-opacity="0.5" result="PINK"></feFlood>        <feComposite in="PINK" in2="DILATED" operator="in" result="OUTLINE"></feComposite>        <feMerge>            <feMergeNode in="OUTLINE"></feMergeNode>            <feMergeNode in="SourceGraphic"></feMergeNode>        </feMerge>            <feColorMatrix type="matrix" values="0   0   0   0   0                0   1   0   0   0                0   0   0   0   0                0   0   0   1   0 "></feColorMatrix>    </filter></defs></svg>